<?xml version="1.0" encoding="UTF-8"?><svg id="uuid-62a16141-974c-4752-b25a-fb29cc8ffe66" xmlns="http://www.w3.org/2000/svg" viewBox="0 0 388.66 76.61"><defs><style>.uuid-b96c6263-cd21-4d6b-8ef8-fd5e16762d12{fill:#231f20;}</style></defs><g id="uuid-46d31f5b-4db2-4cdf-bd62-e18a1bf2a822"><polygon class="uuid-b96c6263-cd21-4d6b-8ef8-fd5e16762d12" points="34.42 76.5 34.45 76.45 34.4 76.45 34.42 76.5"/><polygon class="uuid-b96c6263-cd21-4d6b-8ef8-fd5e16762d12" points="8.29 .96 0 .96 0 1.12 8.36 1.12 8.29 .96"/><polygon class="uuid-b96c6263-cd21-4d6b-8ef8-fd5e16762d12" points="66.72 1.06 65.87 .96 65.8 1.12 73.63 1.12 73.63 .96 66.72 .96 66.72 1.06"/><path class="uuid-b96c6263-cd21-4d6b-8ef8-fd5e16762d12" d="M195.39.96h-23.27v74.37h23.27c10.63,0,19.48-3.52,26.56-10.57,7.08-7.05,10.62-15.88,10.62-26.51v-.21c0-10.62-3.54-19.46-10.62-26.51-7.08-7.05-15.94-10.57-26.56-10.57ZM225.25,41.65c0,9-2.85,16.5-8.55,22.52-5.7,6.02-12.8,9.03-21.3,9.03h-16.36V3.08h16.36c8.5,0,15.6,2.99,21.3,8.98,5.7,5.99,8.55,13.51,8.55,22.58v7.01Z"/><path class="uuid-b96c6263-cd21-4d6b-8ef8-fd5e16762d12" d="M267,.96h-23.27v74.37h23.27c10.63,0,19.48-3.52,26.56-10.57,7.08-7.05,10.62-15.88,10.62-26.51v-.21c0-10.62-3.54-19.46-10.62-26.51-7.08-7.05-15.94-10.57-26.56-10.57ZM296.86,41.65c0,9-2.85,16.5-8.55,22.52-5.7,6.02-12.8,9.03-21.3,9.03h-16.36V3.08h16.36c8.5,0,15.6,2.99,21.3,8.98,5.7,5.99,8.55,13.51,8.55,22.58v7.01Z"/><rect class="uuid-b96c6263-cd21-4d6b-8ef8-fd5e16762d12" x="315.34" y=".96" width="6.91" height="74.37"/><polygon class="uuid-b96c6263-cd21-4d6b-8ef8-fd5e16762d12" points="386.53 .96 386.53 63.01 342.22 .96 335 .96 335 75.33 337.12 75.33 337.12 5.31 388.66 76.61 388.66 .96 386.53 .96"/><polygon class="uuid-b96c6263-cd21-4d6b-8ef8-fd5e16762d12" points="37.29 65.24 8.36 1.12 0 1.12 0 75.33 2.12 75.33 2.12 3.61 34.4 76.45 34.45 76.45 66.72 4.14 66.72 75.33 73.63 75.33 73.63 1.12 65.8 1.12 37.29 65.24"/><path class="uuid-b96c6263-cd21-4d6b-8ef8-fd5e16762d12" d="M122.93,0h-.11c-10.84,0-19.89,3.52-27.15,10.57-7.26,7.05-10.89,16.2-10.89,27.47v.21c0,11.26,3.63,20.42,10.89,27.47,7.26,7.05,16.31,10.57,27.15,10.57h.11c10.84,0,19.89-3.52,27.15-10.57,7.26-7.05,10.89-16.2,10.89-27.47v-.21c0-11.26-3.63-20.42-10.89-27.47-7.26-7.05-16.31-10.57-27.15-10.57ZM153.53,41.65c0,9.7-2.96,17.55-8.87,23.53-5.91,5.99-13.16,8.98-21.73,8.98h-.11c-8.57,0-15.81-2.99-21.73-8.98-5.92-5.98-8.87-13.79-8.87-23.43v-7.23c0-9.63,2.94-17.44,8.82-23.43,5.88-5.98,13.14-8.98,21.78-8.98h.11c8.64,0,15.9,2.99,21.78,8.98,5.88,5.99,8.82,13.8,8.82,23.43v7.12Z"/></g></svg>